<svg width="24" height="24" viewBox="0 0 24 24" fill="none" xmlns="http://www.w3.org/2000/svg">
<mask id="mask0_18356_6404" style="mask-type:alpha" maskUnits="userSpaceOnUse" x="-1" y="0" width="25" height="24">
<rect x="-0.000488281" width="24" height="24" fill="#D9D9D9"/>
</mask>
<g mask="url(#mask0_18356_6404)">
<path d="M16.0993 13.3001L14.6493 11.8501C14.7993 11.0668 14.5743 10.3334 13.9743 9.6501C13.3743 8.96676 12.5993 8.7001 11.6493 8.8501L10.1993 7.4001C10.4827 7.26676 10.7701 7.16676 11.0618 7.1001C11.3535 7.03343 11.666 7.0001 11.9993 7.0001C13.2493 7.0001 14.3118 7.4376 15.1868 8.3126C16.0618 9.1876 16.4993 10.2501 16.4993 11.5001C16.4993 11.8334 16.466 12.1459 16.3993 12.4376C16.3327 12.7293 16.2326 13.0168 16.0993 13.3001ZM19.2993 16.4501L17.8493 15.0501C18.4827 14.5668 19.0452 14.0376 19.5368 13.4626C20.0285 12.8876 20.4493 12.2334 20.7993 11.5001C19.966 9.81676 18.7701 8.47926 17.2118 7.4876C15.6535 6.49593 13.916 6.0001 11.9993 6.0001C11.516 6.0001 11.041 6.03343 10.5743 6.1001C10.1077 6.16676 9.64932 6.26676 9.19932 6.4001L7.64932 4.8501C8.33265 4.56676 9.03265 4.35426 9.74932 4.2126C10.466 4.07093 11.216 4.0001 11.9993 4.0001C14.3826 4.0001 16.5243 4.62926 18.4243 5.8876C20.3243 7.14593 21.7493 8.78343 22.6993 10.8001C22.7493 10.8834 22.7826 10.9876 22.7993 11.1126C22.816 11.2376 22.8243 11.3668 22.8243 11.5001C22.8243 11.6334 22.8118 11.7626 22.7868 11.8876C22.7618 12.0126 22.7326 12.1168 22.6993 12.2001C22.316 13.0501 21.8368 13.8334 21.2618 14.5501C20.6868 15.2668 20.0326 15.9001 19.2993 16.4501ZM19.0993 21.9001L15.5993 18.4501C15.016 18.6334 14.4285 18.7709 13.8368 18.8626C13.2452 18.9543 12.6326 19.0001 11.9993 19.0001C9.61598 19.0001 7.47432 18.3709 5.57432 17.1126C3.67432 15.8543 2.24932 14.2168 1.29932 12.2001C1.24932 12.1168 1.21598 12.0126 1.19932 11.8876C1.18265 11.7626 1.17432 11.6334 1.17432 11.5001C1.17432 11.3668 1.18265 11.2418 1.19932 11.1251C1.21598 11.0084 1.24932 10.9084 1.29932 10.8251C1.64932 10.0751 2.06598 9.38343 2.54932 8.7501C3.03265 8.11676 3.56598 7.53343 4.14932 7.0001L2.07432 4.9001C1.89098 4.71676 1.79932 4.4876 1.79932 4.2126C1.79932 3.9376 1.89932 3.7001 2.09932 3.5001C2.28265 3.31676 2.51598 3.2251 2.79932 3.2251C3.08265 3.2251 3.31598 3.31676 3.49932 3.5001L20.4993 20.5001C20.6826 20.6834 20.7785 20.9126 20.7868 21.1876C20.7952 21.4626 20.6993 21.7001 20.4993 21.9001C20.316 22.0834 20.0826 22.1751 19.7993 22.1751C19.516 22.1751 19.2826 22.0834 19.0993 21.9001ZM5.54932 8.4001C5.06598 8.83343 4.62432 9.30843 4.22432 9.8251C3.82432 10.3418 3.48265 10.9001 3.19932 11.5001C4.03265 13.1834 5.22848 14.5209 6.78682 15.5126C8.34515 16.5043 10.0826 17.0001 11.9993 17.0001C12.3326 17.0001 12.6576 16.9793 12.9743 16.9376C13.291 16.8959 13.616 16.8501 13.9493 16.8001L13.0493 15.8501C12.866 15.9001 12.691 15.9376 12.5243 15.9626C12.3576 15.9876 12.1826 16.0001 11.9993 16.0001C10.7493 16.0001 9.68682 15.5626 8.81182 14.6876C7.93682 13.8126 7.49932 12.7501 7.49932 11.5001C7.49932 11.3168 7.51182 11.1418 7.53682 10.9751C7.56182 10.8084 7.59932 10.6334 7.64932 10.4501L5.54932 8.4001Z" fill="#A8A8A8"/>
</g>
</svg>
